<?xml version="1.0" standalone="no"?>
<!DOCTYPE svg PUBLIC "-//W3C//DTD SVG 20010904//EN"
 "http://www.w3.org/TR/2001/REC-SVG-20010904/DTD/svg10.dtd">
<svg version="1.0" xmlns="http://www.w3.org/2000/svg"
 width="230.000000pt" height="224.000000pt" viewBox="0 0 230.000000 224.000000"
 preserveAspectRatio="xMidYMid meet">
<metadata>
Created by potrace 1.10, written by Peter Selinger 2001-2011
</metadata>
<g transform="translate(0.000000,224.000000) scale(0.100000,-0.100000)"
fill="#000000" stroke="none">
<path d="M1160 1589 c-110 -21 -232 -116 -277 -215 -29 -63 -45 -154 -37 -205
6 -37 6 -38 -33 -48 -80 -22 -161 -101 -183 -179 -15 -55 -12 -137 7 -176 15
-33 15 -39 -1 -97 -22 -80 -15 -87 62 -65 55 15 64 15 123 0 103 -26 176 -8
252 65 40 37 65 77 76 120 7 23 10 24 82 22 55 -2 93 4 141 19 l66 22 88 -25
c55 -16 93 -22 98 -17 6 6 0 43 -17 98 l-26 88 25 62 c29 73 34 187 10 263
-41 133 -166 242 -306 269 -60 11 -87 11 -150 -1z m233 -73 c68 -35 140 -108
170 -174 34 -73 31 -207 -5 -284 l-27 -58 24 -70 c13 -38 21 -70 18 -70 -3 0
-37 9 -76 21 l-69 21 -48 -21 c-242 -104 -516 98 -486 358 13 107 84 218 170
264 77 41 100 46 186 44 72 -2 94 -7 143 -31z m-523 -453 c0 -8 15 -41 34 -72
35 -57 101 -115 168 -147 33 -15 37 -21 31 -43 -14 -63 -72 -126 -138 -151
-43 -16 -128 -14 -164 5 -31 15 -57 13 -113 -10 -17 -7 -17 -4 -3 35 14 38 13
46 -6 103 -26 77 -21 132 17 194 34 53 64 79 120 98 43 14 54 12 54 -12z"/>
<path d="M1227 1424 c-4 -4 -7 -81 -7 -171 0 -157 1 -163 20 -163 20 0 20 5
18 167 -3 156 -9 189 -31 167z"/>
<path d="M1220 1000 c0 -13 7 -20 20 -20 13 0 20 7 20 20 0 13 -7 20 -20 20
-13 0 -20 -7 -20 -20z"/>
</g>
</svg>
