<?xml version="1.0" ?>
<!DOCTYPE svg  PUBLIC '-//W3C//DTD SVG 1.1//EN'  'http://www.w3.org/Graphics/SVG/1.1/DTD/svg11.dtd'>
<!-- Uploaded to: SVG Repo, www.svgrepo.com, Generator: SVG Repo Mixer Tools -->
<svg fill="#000000" width="800px" height="800px" viewBox="0 0 512 512" version="1.1" xml:space="preserve" xmlns="http://www.w3.org/2000/svg" xmlns:xlink="http://www.w3.org/1999/xlink">
<g id="_x36_31_x2C__Police_x2C__usa_x2C__star">
<g>
<g>
<g>
<g>
<path d="M256.347,495.956c-64.106,0-124.375-24.964-169.706-70.294s-70.294-105.6-70.294-169.706       c0-64.106,24.964-124.375,70.294-169.706s105.599-70.294,169.706-70.294c64.107,0,124.375,24.964,169.706,70.294       s70.295,105.599,70.295,169.706c0,64.106-24.965,124.375-70.295,169.706S320.454,495.956,256.347,495.956z M256.347,35.957       c-121.309,0-220,98.691-220,220c0,121.308,98.691,220,220,220c121.309,0,220-98.691,220-220       C476.348,134.648,377.656,35.957,256.347,35.957z"/>
</g>
<g>
<path d="M256.347,455.956c-110.28,0-200-89.72-200-200c0-110.28,89.72-200,200-200c110.281,0,200,89.72,200,200       C456.348,366.236,366.628,455.956,256.347,455.956z M256.347,75.957c-99.252,0-180,80.748-180,180s80.748,180,180,180       s180-80.747,180-180S355.6,75.957,256.347,75.957z"/>
</g>
<g>
<path d="M256.347,395.956c-77.196,0-140-62.804-140-140c0-77.196,62.804-140,140-140c77.197,0,140,62.804,140,140       C396.348,333.152,333.544,395.956,256.347,395.956z M256.347,135.957c-66.168,0-120,53.832-120,120       c0,66.167,53.832,120,120,120s120-53.832,120-120C376.348,189.789,322.516,135.957,256.347,135.957z"/>
</g>
<g>
<path d="M310.539,340.544c-2.063,0-4.125-0.637-5.878-1.91l-48.314-35.102l-48.313,35.102c-3.505,2.547-8.251,2.547-11.756,0       c-3.505-2.546-4.971-7.06-3.633-11.18l18.454-56.797l-48.313-35.101c-3.505-2.546-4.971-7.06-3.633-11.181       c1.339-4.12,5.179-6.91,9.511-6.91h59.718l18.454-56.795c1.339-4.12,5.178-6.91,9.511-6.91s8.171,2.79,9.51,6.91l18.455,56.795       h59.719c4.332,0,8.172,2.79,9.511,6.91c1.339,4.121-0.128,8.634-3.633,11.181l-48.313,35.101l18.454,56.797       c1.339,4.12-0.128,8.634-3.633,11.18C314.664,339.907,312.602,340.544,310.539,340.544z M256.347,281.172       c2.063,0,4.125,0.637,5.877,1.91l29.294,21.282l-11.189-34.437c-1.339-4.12,0.128-8.634,3.633-11.18l29.292-21.282h-36.207       c-4.332,0-8.172-2.79-9.511-6.91l-11.189-34.436l-11.188,34.436c-1.339,4.12-5.179,6.91-9.511,6.91h-36.207l29.292,21.282       c3.505,2.546,4.971,7.06,3.633,11.18l-11.188,34.437l29.292-21.282C252.222,281.809,254.285,281.172,256.347,281.172z"/>
</g>
</g>
</g>
</g>
</g>
<g id="Layer_1"/>
</svg>