<?xml version="1.0" standalone="no"?>
<!DOCTYPE svg PUBLIC "-//W3C//DTD SVG 20010904//EN"
 "http://www.w3.org/TR/2001/REC-SVG-20010904/DTD/svg10.dtd">
<svg version="1.0" xmlns="http://www.w3.org/2000/svg"
 width="215.000000pt" height="220.000000pt" viewBox="0 0 215.000000 220.000000"
 preserveAspectRatio="xMidYMid meet">
<metadata>
Created by potrace 1.10, written by Peter Selinger 2001-2011
</metadata>
<g transform="translate(0.000000,220.000000) scale(0.100000,-0.100000)"
fill="#000000" stroke="none">
<path d="M1057 1563 c-12 -11 -8 -158 4 -170 6 -6 18 -9 25 -6 10 4 14 28 14
94 0 80 -2 89 -18 89 -10 0 -22 -3 -25 -7z"/>
<path d="M784 1487 c-7 -18 75 -157 93 -157 28 0 23 28 -17 98 -40 68 -65 88
-76 59z"/>
<path d="M1291 1425 c-41 -73 -45 -95 -16 -95 18 0 98 137 91 156 -11 29 -33
12 -75 -61z"/>
<path d="M585 1290 c-10 -16 2 -27 76 -71 49 -28 74 -38 81 -31 19 19 1 38
-65 76 -69 38 -82 42 -92 26z"/>
<path d="M1470 1262 c-64 -37 -85 -64 -57 -75 20 -8 158 74 155 93 -5 25 -30
21 -98 -18z"/>
<path d="M924 1271 c-46 -21 -86 -69 -102 -121 -6 -19 -22 -102 -36 -185 -15
-82 -28 -159 -31 -170 -3 -13 -19 -26 -41 -34 -69 -25 -87 -148 -29 -198 l26
-23 369 0 368 0 26 31 c21 24 26 41 26 83 0 59 -27 100 -74 112 -14 3 -26 9
-26 13 -1 39 -72 386 -83 407 -20 39 -55 70 -99 89 -56 23 -240 21 -294 -4z
m299 -39 c15 -10 35 -27 45 -38 17 -18 20 -23 27 -49 2 -5 8 -24 13 -41 8 -25
7 -33 -7 -42 -15 -10 -15 -11 1 -6 12 4 17 0 17 -13 0 -25 11 -91 22 -133 5
-19 9 -47 9 -62 0 -16 5 -28 11 -28 5 0 7 -5 3 -11 -11 -19 19 -60 58 -80 21
-11 38 -22 38 -25 0 -3 -6 -2 -12 2 -8 5 -8 1 1 -10 18 -21 22 -56 7 -56 -7 0
-7 -3 1 -8 8 -5 7 -14 -7 -32 l-19 -25 -352 0 c-274 0 -353 3 -356 13 -3 6 -8
10 -13 7 -4 -2 -12 18 -17 45 -6 27 -6 47 -1 44 4 -3 8 1 8 8 0 8 20 28 45 46
25 17 45 38 45 47 0 8 6 15 13 16 9 0 9 2 0 5 -8 4 -9 13 -3 29 5 12 6 26 3
29 -4 3 1 6 10 6 9 0 14 -6 11 -13 -5 -15 33 -61 58 -70 11 -4 24 2 36 18 11
13 22 22 25 19 3 -3 4 2 3 13 -2 10 -1 23 3 28 3 6 6 17 6 25 2 28 28 165 35
186 5 11 22 35 39 52 37 36 38 42 9 73 -31 33 -100 36 -114 5 -5 -11 -20 -23
-33 -24 -22 -4 -23 -2 -8 12 8 9 20 16 26 16 6 0 11 5 11 10 0 20 46 29 160
29 95 1 120 -2 143 -17z m-203 -47 c13 -16 6 -35 -14 -35 -35 0 -46 -27 -72
-170 -14 -79 -28 -148 -30 -152 -9 -15 -44 -8 -44 8 0 33 51 298 61 316 6 11
25 26 42 33 41 18 42 18 57 0z m-136 -38 c-2 -11 -8 -25 -13 -30 -5 -5 -7 -16
-4 -25 4 -9 2 -13 -4 -9 -6 4 -11 1 -10 -6 1 -46 -5 -87 -13 -87 -6 0 -7 19
-4 48 8 64 10 73 18 103 9 30 36 36 30 6z m-44 -193 c-6 -14 -8 -36 -6 -48 3
-14 -1 -23 -9 -23 -9 0 -12 11 -8 36 7 50 11 61 22 61 7 0 7 -9 1 -26z"/>
<path d="M513 1014 c-9 -25 16 -34 92 -34 76 0 101 9 92 34 -5 13 -23 16 -92
16 -69 0 -87 -3 -92 -16z"/>
<path d="M1455 1020 c-4 -6 -1 -18 6 -26 9 -11 31 -14 93 -12 75 3 81 5 84 26
3 21 1 22 -87 22 -52 0 -93 -4 -96 -10z"/>
</g>
</svg>
